<?xml version="1.0" encoding="utf-8"?>
<!-- Generator: Adobe Illustrator 22.1.0, SVG Export Plug-In . SVG Version: 6.00 Build 0)  -->
<svg version="1.1" id="Layer_1" xmlns="http://www.w3.org/2000/svg" xmlns:xlink="http://www.w3.org/1999/xlink" x="0px" y="0px"
	 viewBox="0 0 30 39" style="enable-background:new 0 0 30 39;" xml:space="preserve">
<style type="text/css">
	.st0{opacity:0.9;}
	.st1{fill:#AB121C;}
</style>
<g id="fM6iZL_1_" class="st0">
	<g>
		<g>
			<path class="st1" d="M15,38.2c-7.8,0-14.1-6.1-14.3-13.9c-0.1-2.4,0.8-4.7,1.9-6.8c2.6-5.2,6.1-9.7,9.7-14.1
				c0.6-0.7,1.2-1.5,1.9-2.2c0.6-0.6,1.2-0.6,1.7,0c4.7,5.4,9,11,12.1,17.5C32.5,28,24.8,38.4,15,38.2z M7,24.4
				c0,3.3,2.9,6.7,6.3,7.4c0.4,0.1,0.8,0.2,1.2,0.2c0.5,0.1,1.1,0.1,1.1-0.6c0.1-0.6-0.5-0.6-0.9-0.7c-0.4,0-0.8-0.1-1.2-0.2
				c-2.9-0.7-4.8-2.9-5.2-6c-0.1-0.5,0-1.2-0.7-1.2C6.9,23.4,7,24,7,24.4z"/>
		</g>
	</g>
</g>
</svg>
