<?xml version="1.0" encoding="utf-8"?>
<!-- Generator: Adobe Illustrator 22.1.0, SVG Export Plug-In . SVG Version: 6.00 Build 0)  -->
<svg version="1.1" id="Layer_1" xmlns="http://www.w3.org/2000/svg" xmlns:xlink="http://www.w3.org/1999/xlink" x="0px" y="0px"
	 viewBox="0 0 324 459" style="enable-background:new 0 0 324 459;" xml:space="preserve">
<style type="text/css">
	.st0{opacity:0.4;fill:url(#SVGID_1_);}
	.st1{fill:#FFFFFF;}
	.st2{opacity:0.9;fill:#AB121C;}
	.st3{opacity:0.5;fill:none;stroke:url(#SVGID_2_);stroke-width:1.046;stroke-miterlimit:10;}
	.st4{opacity:0.6;fill:none;stroke:url(#SVGID_3_);stroke-miterlimit:10;}
	.st5{opacity:0.9;fill:#8B2B1E;}
	.st6{opacity:0.6;fill:none;stroke:url(#SVGID_4_);stroke-miterlimit:10;}
	.st7{opacity:0.4;fill:url(#SVGID_5_);}
	.st8{opacity:0.6;fill:none;stroke:url(#SVGID_6_);stroke-miterlimit:10;}
</style>
<g>
	<linearGradient id="SVGID_1_" gradientUnits="userSpaceOnUse" x1="217.586" y1="445.0754" x2="112.6117" y2="263.2548">
		<stop  offset="0.1392" style="stop-color:#5B8EBE;stop-opacity:0"/>
		<stop  offset="0.4174" style="stop-color:#615571;stop-opacity:0.4052"/>
		<stop  offset="0.6961" style="stop-color:#662129;stop-opacity:0.8109"/>
		<stop  offset="0.8259" style="stop-color:#680C0D"/>
	</linearGradient>
	<path class="st0" d="M9.7,324.6l188.8,131.5l117.9-79.8l-171.5-49.8c0,0-97.8-12.1-134.8-4C9.1,322.7,8.9,324,9.7,324.6z"/>
	<path class="st1" d="M153,110.8c0,0-63.5,25.4-144.8-4.1l2.9,214c0,0,3.8,16.9,65.3,18.2c0,0,65.2,4.2,73-12.7L153,110.8z"/>
	<path class="st2" d="M153,110.8c0,0-63.5,25.4-144.8-4.1l2.9,214c0,0,3.8,16.9,65.3,18.2c0,0,65.2,4.2,73-12.7L153,110.8z"/>
	<linearGradient id="SVGID_2_" gradientUnits="userSpaceOnUse" x1="11.2585" y1="4.6012" x2="148.4752" y2="4.6012">
		<stop  offset="0" style="stop-color:#0E385A;stop-opacity:0"/>
		<stop  offset="7.668543e-02" style="stop-color:#0E385A;stop-opacity:0.1471"/>
		<stop  offset="0.5215" style="stop-color:#0E385A"/>
		<stop  offset="0.9316" style="stop-color:#0E385A;stop-opacity:0.1429"/>
		<stop  offset="1" style="stop-color:#0E385A;stop-opacity:0"/>
	</linearGradient>
	<path class="st3" d="M11.3,6.3c0,0,72.4-7.6,137.1,0"/>
	<linearGradient id="SVGID_3_" gradientUnits="userSpaceOnUse" x1="31.5132" y1="15.4746" x2="7.6899" y2="15.4746">
		<stop  offset="0.1272" style="stop-color:#5B8EBE;stop-opacity:0"/>
		<stop  offset="0.282" style="stop-color:#5081AF;stop-opacity:0.2027"/>
		<stop  offset="0.5778" style="stop-color:#326089;stop-opacity:0.5903"/>
		<stop  offset="0.8906" style="stop-color:#0E385A"/>
	</linearGradient>
	<path class="st4" d="M8,12.7c0,0,6.7,4.2,23.5,5.5"/>
	<path class="st5" d="M8.8,107.4c0,0,67.9,29.2,144.6,3.5C153.4,111,86.2,84,8.8,107.4z"/>
	<linearGradient id="SVGID_4_" gradientUnits="userSpaceOnUse" x1="117.8378" y1="16.7252" x2="154.2135" y2="16.7252">
		<stop  offset="0.1272" style="stop-color:#5B8EBE;stop-opacity:0"/>
		<stop  offset="0.282" style="stop-color:#5081AF;stop-opacity:0.2027"/>
		<stop  offset="0.5778" style="stop-color:#326089;stop-opacity:0.5903"/>
		<stop  offset="0.8906" style="stop-color:#0E385A"/>
	</linearGradient>
	<path class="st6" d="M117.8,19.3c5.1,0.1,24.9,0.4,36.1-5.2"/>
	<linearGradient id="SVGID_5_" gradientUnits="userSpaceOnUse" x1="121.8415" y1="174.8647" x2="153.5756" y2="174.8647">
		<stop  offset="0.214" style="stop-color:#5B8EBE;stop-opacity:0"/>
		<stop  offset="0.2979" style="stop-color:#5989B7;stop-opacity:0.1137"/>
		<stop  offset="0.421" style="stop-color:#537AA3;stop-opacity:0.2805"/>
		<stop  offset="0.5682" style="stop-color:#4A6383;stop-opacity:0.4801"/>
		<stop  offset="0.7342" style="stop-color:#3E4156;stop-opacity:0.7049"/>
		<stop  offset="0.9136" style="stop-color:#2E181D;stop-opacity:0.948"/>
		<stop  offset="0.9519" style="stop-color:#2A0E10"/>
	</linearGradient>
	<path class="st7" d="M123.4,15.6l25-3.6c2.9-0.2,5.3,1.7,5.2,4l-4.3,298.8c1.1,11.6-8.5,18.6-19.2,20.6c-3,0.6-6,2.1-8.2,2.3
		L123.4,15.6z"/>
	<linearGradient id="SVGID_6_" gradientUnits="userSpaceOnUse" x1="7.1327" y1="175.6393" x2="154.5835" y2="175.6393">
		<stop  offset="4.931157e-02" style="stop-color:#0E385A"/>
		<stop  offset="0.5002" style="stop-color:#5B8EBE;stop-opacity:0"/>
		<stop  offset="0.5793" style="stop-color:#5081AF;stop-opacity:0.2027"/>
		<stop  offset="0.7307" style="stop-color:#326089;stop-opacity:0.5903"/>
		<stop  offset="0.8906" style="stop-color:#0E385A"/>
	</linearGradient>
	<path class="st8" d="M10.1,10.5c15.7,1.4,101.5,8.5,141.3,0.4c1.4-0.3,2.7,0.8,2.7,2.2l-4.2,308.7c0,0,0,21.9-78.5,18.6
		c0,0-48.2-2.8-59.5-18c-0.3-0.4-0.4-0.8-0.4-1.3L7.6,12.8C7.6,11.5,8.8,10.4,10.1,10.5z"/>
</g>
</svg>
